<svg width="50" height="50" viewBox="0 0 50 50" fill="none" xmlns="http://www.w3.org/2000/svg">
<path fill-rule="evenodd" clip-rule="evenodd" d="M25.1985 5.43701C15.5936 5.43701 7.80722 13.2234 7.80722 22.8284V23.8452C4.58609 25.446 2.37244 28.7699 2.37244 32.611C2.37244 38.0137 6.75226 42.3936 12.155 42.3936H38.242C43.6448 42.3936 48.0246 38.0137 48.0246 32.611C48.0246 28.7699 45.811 25.446 42.5898 23.8452V22.8284C42.5898 13.2234 34.8035 5.43701 25.1985 5.43701Z" fill="#9069CD"/>
<path d="M12.155 22.8282C12.155 15.6244 17.9948 9.78467 25.1985 9.78467C32.4022 9.78467 38.242 15.6244 38.242 22.8282V31.5239C38.242 38.7275 32.4022 44.5673 25.1985 44.5673C17.9948 44.5673 12.155 38.7275 12.155 31.5239V22.8282Z" fill="#F3AD6D"/>
<path d="M7.80725 26.6325C7.80725 23.9311 9.99716 21.7412 12.6985 21.7412H37.6985C40.3999 21.7412 42.5898 23.9311 42.5898 26.6325C42.5898 29.3338 40.3999 31.5238 37.6985 31.5238H12.6985C9.99716 31.5238 7.80725 29.3338 7.80725 26.6325Z" fill="#F3AD6D"/>
<path d="M19.7637 22.2847C19.7637 21.3842 20.4937 20.6543 21.3941 20.6543C22.2945 20.6543 23.0245 21.3842 23.0245 22.2847V26.6326C23.0245 27.533 22.2945 28.263 21.3941 28.263C20.4937 28.263 19.7637 27.533 19.7637 26.6326V22.2847Z" fill="#BF8034"/>
<path d="M26.2854 22.2847C26.2854 21.3842 27.0154 20.6543 27.9158 20.6543C28.8163 20.6543 29.5463 21.3842 29.5463 22.2847V26.6326C29.5463 27.533 28.8163 28.263 27.9158 28.263C27.0154 28.263 26.2854 27.533 26.2854 26.6326V22.2847Z" fill="#BF8034"/>
<path d="M18.6768 31.5702C18.6768 30.9443 19.1841 30.437 19.81 30.437H29.5001C30.126 30.437 30.6333 30.9443 30.6333 31.5702V32.0674C30.6333 35.3691 27.9568 38.0457 24.655 38.0457C21.3534 38.0457 18.6768 35.3691 18.6768 32.0674V31.5702Z" fill="white"/>
<path d="M7.80725 22.8329V22.8284C7.80725 13.2234 15.5936 5.43701 25.1985 5.43701C28.2826 5.43701 31.1791 6.23977 33.6906 7.64772C32.3181 16.8479 24.1724 23.9153 14.329 23.9153C12.0422 23.9153 9.84711 23.5339 7.80725 22.8329Z" fill="#9069CD"/>
</svg>
